<mxfile host="www.draw.io" modified="2023-04-12T10:52:11.879Z" agent="Mozilla/5.0 (Windows NT 10.0; Win64; x64) AppleWebKit/537.36 (KHTML, like Gecko) Chrome/112.0.0.0 Safari/537.36 Edg/112.0.1722.34" etag="1qlAugVXxfiXgALL1f2X" version="21.1.5" type="device">
  <diagram name="Page-1" id="EACw5yXtIGDIImSudTco">
    <mxGraphModel dx="1811" dy="718" grid="1" gridSize="10" guides="1" tooltips="1" connect="1" arrows="1" fold="1" page="1" pageScale="1" pageWidth="850" pageHeight="1100" math="0" shadow="0">
      <root>
        <mxCell id="0" />
        <mxCell id="1" parent="0" />
        <mxCell id="USlX6GhgUat2fFuKcLw7-24" value="" style="rounded=0;whiteSpace=wrap;html=1;fillColor=#B0B0B0;fontColor=#333333;strokeColor=#666666;" parent="1" vertex="1">
          <mxGeometry x="180" y="56" width="400" height="34" as="geometry" />
        </mxCell>
        <mxCell id="USlX6GhgUat2fFuKcLw7-2" value="" style="rounded=0;whiteSpace=wrap;html=1;fillColor=#f5f5f5;fontColor=#333333;strokeColor=#666666;" parent="1" vertex="1">
          <mxGeometry x="180" y="90" width="400" height="480" as="geometry" />
        </mxCell>
        <mxCell id="USlX6GhgUat2fFuKcLw7-3" value="&lt;font style=&quot;font-size: 20px;&quot;&gt;Car Tuning Configuration&lt;/font&gt;" style="text;html=1;align=center;verticalAlign=middle;resizable=0;points=[];autosize=1;strokeColor=none;fillColor=none;fontStyle=1" parent="1" vertex="1">
          <mxGeometry x="250" y="50" width="260" height="40" as="geometry" />
        </mxCell>
        <mxCell id="USlX6GhgUat2fFuKcLw7-5" value="Player" style="shape=umlActor;verticalLabelPosition=bottom;verticalAlign=top;html=1;outlineConnect=0;" parent="1" vertex="1">
          <mxGeometry x="90" y="360" width="60" height="120" as="geometry" />
        </mxCell>
        <mxCell id="USlX6GhgUat2fFuKcLw7-7" value="Attach tuning part&amp;nbsp;" style="ellipse;whiteSpace=wrap;html=1;" parent="1" vertex="1">
          <mxGeometry x="272.5" y="110" width="215" height="80" as="geometry" />
        </mxCell>
        <mxCell id="USlX6GhgUat2fFuKcLw7-8" value="Remove tuning part" style="ellipse;whiteSpace=wrap;html=1;" parent="1" vertex="1">
          <mxGeometry x="272.5" y="200" width="215" height="80" as="geometry" />
        </mxCell>
        <mxCell id="USlX6GhgUat2fFuKcLw7-10" value="Revert to default" style="ellipse;whiteSpace=wrap;html=1;" parent="1" vertex="1">
          <mxGeometry x="272.5" y="290" width="215" height="80" as="geometry" />
        </mxCell>
        <mxCell id="USlX6GhgUat2fFuKcLw7-20" value="" style="endArrow=none;html=1;rounded=0;entryX=0.5;entryY=0.5;entryDx=0;entryDy=0;entryPerimeter=0;exitX=0;exitY=0.5;exitDx=0;exitDy=0;" parent="1" source="USlX6GhgUat2fFuKcLw7-7" target="USlX6GhgUat2fFuKcLw7-5" edge="1">
          <mxGeometry width="50" height="50" relative="1" as="geometry">
            <mxPoint x="620" y="250" as="sourcePoint" />
            <mxPoint x="690" y="325" as="targetPoint" />
          </mxGeometry>
        </mxCell>
        <mxCell id="USlX6GhgUat2fFuKcLw7-21" value="" style="endArrow=none;html=1;rounded=0;entryX=0.5;entryY=0.5;entryDx=0;entryDy=0;entryPerimeter=0;exitX=0;exitY=0.5;exitDx=0;exitDy=0;" parent="1" source="USlX6GhgUat2fFuKcLw7-8" target="USlX6GhgUat2fFuKcLw7-5" edge="1">
          <mxGeometry width="50" height="50" relative="1" as="geometry">
            <mxPoint x="283" y="160" as="sourcePoint" />
            <mxPoint x="130" y="295" as="targetPoint" />
          </mxGeometry>
        </mxCell>
        <mxCell id="USlX6GhgUat2fFuKcLw7-23" value="" style="endArrow=none;html=1;rounded=0;entryX=0.5;entryY=0.5;entryDx=0;entryDy=0;entryPerimeter=0;exitX=0;exitY=0.5;exitDx=0;exitDy=0;" parent="1" source="USlX6GhgUat2fFuKcLw7-10" target="USlX6GhgUat2fFuKcLw7-5" edge="1">
          <mxGeometry width="50" height="50" relative="1" as="geometry">
            <mxPoint x="303" y="180" as="sourcePoint" />
            <mxPoint x="150" y="315" as="targetPoint" />
          </mxGeometry>
        </mxCell>
        <mxCell id="NtNAcbeGhOQz2kkQQfVS-1" value="Select Car" style="ellipse;whiteSpace=wrap;html=1;" parent="1" vertex="1">
          <mxGeometry x="272.5" y="380" width="215" height="80" as="geometry" />
        </mxCell>
        <mxCell id="NtNAcbeGhOQz2kkQQfVS-2" value="" style="endArrow=none;html=1;rounded=0;entryX=0.5;entryY=0.5;entryDx=0;entryDy=0;entryPerimeter=0;exitX=0;exitY=0.5;exitDx=0;exitDy=0;" parent="1" source="NtNAcbeGhOQz2kkQQfVS-1" target="USlX6GhgUat2fFuKcLw7-5" edge="1">
          <mxGeometry width="50" height="50" relative="1" as="geometry">
            <mxPoint x="283" y="430" as="sourcePoint" />
            <mxPoint x="130" y="250" as="targetPoint" />
          </mxGeometry>
        </mxCell>
        <mxCell id="NtNAcbeGhOQz2kkQQfVS-7" value="View Tuning Parts" style="ellipse;whiteSpace=wrap;html=1;" parent="1" vertex="1">
          <mxGeometry x="272.5" y="470" width="215" height="80" as="geometry" />
        </mxCell>
        <mxCell id="NtNAcbeGhOQz2kkQQfVS-9" value="" style="endArrow=none;html=1;rounded=0;exitX=0;exitY=0.5;exitDx=0;exitDy=0;entryX=0.5;entryY=0.5;entryDx=0;entryDy=0;entryPerimeter=0;" parent="1" source="NtNAcbeGhOQz2kkQQfVS-7" target="USlX6GhgUat2fFuKcLw7-5" edge="1">
          <mxGeometry width="50" height="50" relative="1" as="geometry">
            <mxPoint x="498" y="700" as="sourcePoint" />
            <mxPoint x="660" y="375" as="targetPoint" />
          </mxGeometry>
        </mxCell>
      </root>
    </mxGraphModel>
  </diagram>
</mxfile>
